<?xml version="1.0" encoding="UTF-8" standalone="no"?>
<svg width="20px" height="20px" viewBox="0 0 20 20" version="1.1" xmlns="http://www.w3.org/2000/svg" xmlns:xlink="http://www.w3.org/1999/xlink" xmlns:sketch="http://www.bohemiancoding.com/sketch/ns">
    <!-- Generator: Sketch 3.3.3 (12072) - http://www.bohemiancoding.com/sketch -->
    <title>icon-exclamation</title>
    <desc>Created with Sketch.</desc>
    <defs></defs>
    <g id="Page-1" stroke="none" stroke-width="1" fill="none" fill-rule="evenodd" sketch:type="MSPage">
        <g id="icon-exclamation" sketch:type="MSArtboardGroup" fill="#FFFFFF">
            <path d="M10.5,20 C9.11904762,20 8,18.8819048 8,17.5 C8,16.1190476 9.11904762,15 10.5,15 C11.88,15 13,16.1190476 13,17.5 C13,18.8819048 11.88,20 10.5,20" id="Fill-1" sketch:type="MSShapeGroup"></path>
            <path d="M10.9276221,13.4992 L9.75237769,13.4992 C8.92298173,13.4992 8.2512991,12.828 8.2512991,11.9992 L7,1.5 C7,0.672 7.6724832,0 8.50107858,0 L12.1789212,0 C13.0075166,0 13.6799998,0.672 13.6799998,1.5 L12.4279001,11.9992 C12.4287007,12.828 11.7562175,13.4992 10.9276221,13.4992 Z" id="Fill-2" sketch:type="MSShapeGroup"></path>
        </g>
    </g>
</svg>